# xmcd
#
# Track frame offsets: 
#        150
#        13466
#        27337
#        39619
#        53179
#        66342
#        86058
#        97274
#        111118
#        127987
#        145673
#        162608
#        179201
#        192131
#        215756
#        237318
#        258620
#        295698
#        311690
#        331770
#
# Disc length: 4783 seconds
#
# Revision: 1
# Processed by: cddbd v1.5.2PL0 Copyright (c) Steve Scherf et al.
# Submitted via: ExactAudioCopy v1.3
#
DISCID=3a12ad14
DTITLE=John Lee Hooker - Akella Present - Greatest Bluesmen - vol. 06 
DTITLE=CD1
DYEAR=2017
DGENRE=Blues
TTITLE0=Union Station Blues
TTITLE1=Louise
TTITLE2=High Priced Woman
TTITLE3=Love Blues
TTITLE4=Down At The Landing
TTITLE5=Gonna Use My Rod
TTITLE6=I Need Some Money
TTITLE7=I Want To Talk About You
TTITLE8=I Believe I'll Go Back Home
TTITLE9=You're Livin' Me, Baby
TTITLE10=Church Bell Tone
TTITLE11=Good Mornin', Lil' School Girl
TTITLE12=Wobblin' Baby
TTITLE13=Lonesome Mood
TTITLE14=Bang Bang Bang Bang
TTITLE15=The Hookers
TTITLE16=I Wanna Be Your Puppy, Baby
TTITLE17=One Bourbon, One Scotch, One Beer
TTITLE18=Homework
TTITLE19=Five Long Years
EXTD=
EXTT0=
EXTT1=
EXTT2=
EXTT3=
EXTT4=
EXTT5=
EXTT6=
EXTT7=
EXTT8=
EXTT9=
EXTT10=
EXTT11=
EXTT12=
EXTT13=
EXTT14=
EXTT15=
EXTT16=
EXTT17=
EXTT18=
EXTT19=
PLAYORDER=
